<svg width="128" height="128" viewBox="0 0 128 128" fill="none" xmlns="http://www.w3.org/2000/svg">
<g clip-path="url(#clip0_2002_759)">
<path fill-rule="evenodd" clip-rule="evenodd" d="M60.7915 103.634C66.0469 103.634 71.2267 102.92 76.2274 101.598L79.6681 108.959L79.6712 108.965C82.6824 115.383 88.9726 119.149 95.5392 119.149C97.1036 119.149 98.6963 118.927 100.236 118.486L100.296 118.469L100.557 118.388C111.113 115.176 115.743 102.947 111.188 93.2072L106.839 83.9074C116.593 74.3107 123.791 61.8236 126.535 47.8901C126.988 45.5899 126.991 43.2216 126.543 40.9204C126.096 38.6192 125.207 36.4301 123.927 34.4783C122.648 32.5265 121.002 30.8502 119.086 29.5451C117.169 28.24 115.018 27.3318 112.756 26.8722L112.744 26.87C103.251 24.9636 93.994 31.1967 92.0888 40.8834C91.6299 43.2163 90.8878 45.4961 89.8984 47.6846L77.4306 21.0133L77.4287 21.0093C74.5176 14.7954 68.3551 10.8239 61.5799 10.8226C58.2497 10.8188 54.9875 11.7813 52.1765 13.5972C49.3693 15.4105 47.1285 17.9996 45.7164 21.0611L33.1098 48.0296C28.416 41.8518 20.0959 39.3358 12.6366 42.4064C3.66157 46.101 -0.668837 56.483 2.91405 65.6045L3.00981 65.8577L3.03451 65.9184C5.86441 72.8712 10.3944 79.2289 15.9564 84.6359L11.9294 93.2451C7.9623 101.743 10.8345 112.412 19.3706 117.029C21.4642 118.164 23.7622 118.855 26.1259 119.062C28.4908 119.269 30.8723 118.986 33.1266 118.23C35.3808 117.474 37.461 116.261 39.2413 114.665C41.0216 113.069 42.4651 111.122 43.4845 108.942L46.7996 101.855C51.3914 103.005 56.0931 103.634 60.7915 103.634ZM78.9675 95.339L72.5019 81.5032L84.2923 106.724L68.1813 72.2575L72.5019 81.5032L70.9712 78.229L78.9675 95.339ZM68.1635 72.223C68.1629 72.2231 68.164 72.2229 68.1635 72.223V72.223ZM34.1241 59.8912C34.2193 60.0105 34.3157 60.1295 34.4134 60.2479C34.368 60.1929 34.3226 60.1373 34.2778 60.0822C34.2263 60.0188 34.1748 59.9548 34.1241 59.8912ZM34.6704 60.555C34.6829 60.5697 34.6954 60.5844 34.7079 60.5991L34.6704 60.555ZM34.7178 60.5902L34.719 60.5916L34.722 60.5953C34.7206 60.5936 34.7192 60.5919 34.7178 60.5902Z" fill="white"/>
<path fill-rule="evenodd" clip-rule="evenodd" d="M44.032 95.6514L54.8693 72.4658C46.592 70.6783 38.2635 65.4719 33.5531 59.1375L22.2208 83.3644C28.5184 88.7963 36.0789 93.0656 44.032 95.6514Z" fill="#1A007F"/>
<path fill-rule="evenodd" clip-rule="evenodd" d="M89.2586 58.4433C83.8144 65.2289 76.2538 70.2617 68.1642 72.2228L78.9675 95.339C86.8523 92.6317 94.225 88.2584 100.591 82.6529L89.2586 58.4433Z" fill="#4E000A"/>
<path fill-rule="evenodd" clip-rule="evenodd" d="M22.2208 83.3644L16.5546 95.4778C13.6704 101.639 15.8378 109.223 21.777 112.433C28.0746 115.835 35.8229 113.179 38.8608 106.706L44.032 95.6514C36.0465 93.0335 28.6383 88.8603 22.2208 83.3644Z" fill="#1A007F"/>
<path fill-rule="evenodd" clip-rule="evenodd" d="M111.753 31.9951C110.15 31.6688 108.5 31.6668 106.897 31.9891C105.293 32.3114 103.768 32.9518 102.408 33.8736C101.049 34.7955 99.8807 35.9807 98.9715 37.3617C98.0622 38.7426 97.4295 40.2922 97.1093 41.9218C95.9146 47.9959 93.1157 53.6535 89.2586 58.4607L100.574 82.6876C111.019 73.4723 118.733 60.925 121.498 46.8852C122.846 40.0128 118.477 33.3487 111.753 31.9951Z" fill="#FF9396"/>
<path fill-rule="evenodd" clip-rule="evenodd" d="M68.1642 72.2228C65.7408 72.8128 63.2661 73.1252 60.7914 73.1252C58.8629 73.1252 56.8661 72.8996 54.8693 72.4657C46.592 70.6782 38.2634 65.4719 33.553 59.1375C32.3754 57.5582 31.4197 55.9095 30.7541 54.2262C28.177 47.7529 20.9237 44.6291 14.5578 47.2323C8.19197 49.8528 5.11997 57.2285 7.67997 63.7017C10.5984 71.06 15.7525 77.8109 22.2208 83.3644C28.6321 88.86 36.0346 93.0333 44.0149 95.6514C49.4933 97.4389 55.1765 98.4281 60.7744 98.4281C66.9866 98.4281 73.1136 97.3347 78.9504 95.339L68.1642 72.2228Z" fill="#002DC8"/>
<path fill-rule="evenodd" clip-rule="evenodd" d="M106.547 95.4258L100.574 82.6529L89.2587 58.4433L89.2416 58.4607C89.2416 58.4607 89.2416 58.4433 89.2587 58.4433L72.8064 23.2484C71.7965 21.0892 70.2056 19.2651 68.2181 17.9873C66.2307 16.7096 63.9279 16.0306 61.5765 16.0289C56.7808 16.0289 52.4117 18.8404 50.3467 23.2484L33.5701 59.1375C38.2805 65.4719 46.6091 70.6782 54.8864 72.4658L60.3136 60.873C60.8256 59.7796 62.3616 59.7796 62.8736 60.873L68.1813 72.2228L78.9845 95.339L84.2923 106.689C85.3015 108.852 86.8945 110.68 88.8857 111.958C90.877 113.236 93.1844 113.912 95.5392 113.908C96.6485 113.908 97.7579 113.752 98.8501 113.44C106.342 111.34 109.892 102.576 106.547 95.4258Z" fill="#FF536A"/>
</g>
<defs>
<clipPath id="clip0_2002_759">
<rect width="128" height="109.333" fill="white" transform="translate(0 10.6667)"/>
</clipPath>
</defs>
</svg>
