<svg width="898" height="272" viewBox="0 0 898 272" fill="none" xmlns="http://www.w3.org/2000/svg">
<g clip-path="url(#clip0_534_140)">
<rect width="897.025" height="272" rx="40.2963" fill="black"/>
<g opacity="0.7">
<path d="M696.683 281.466H657.158L545.637 168.427L546.228 281.466H471V-19H696.683V281.466Z" fill="#444444"/>
<path d="M696.685 -18.9928H736.211L847.732 94.0457L847.14 -18.9928H922.368V281.473H696.685V-18.9928Z" fill="#444444"/>
</g>
<path d="M57 213.39V127.129H66.827L113.014 193.673V127.129H123.455V213.39H113.628L67.4412 146.846V213.39H57Z" fill="white"/>
<path d="M167.524 214.129C161.464 214.129 156.059 212.773 151.31 210.062C146.642 207.351 142.998 203.572 140.377 198.725C137.756 193.878 136.446 188.292 136.446 181.966C136.446 175.64 137.756 170.054 140.377 165.207C142.998 160.36 146.642 156.581 151.31 153.87C156.059 151.159 161.464 149.803 167.524 149.803C173.584 149.803 178.948 151.159 183.616 153.87C188.366 156.581 192.051 160.36 194.671 165.207C197.292 170.054 198.602 175.64 198.602 181.966C198.602 188.292 197.292 193.878 194.671 198.725C192.051 203.572 188.366 207.351 183.616 210.062C178.948 212.773 173.584 214.129 167.524 214.129ZM167.524 205.133C171.619 205.133 175.222 204.147 178.334 202.176C181.528 200.204 183.984 197.452 185.704 193.919C187.424 190.387 188.284 186.402 188.284 181.966C188.284 177.53 187.424 173.545 185.704 170.013C183.984 166.48 181.528 163.728 178.334 161.756C175.222 159.785 171.619 158.799 167.524 158.799C163.43 158.799 159.785 159.785 156.592 161.756C153.48 163.728 151.064 166.48 149.344 170.013C147.624 173.545 146.765 177.53 146.765 181.966C146.765 186.402 147.624 190.387 149.344 193.919C151.064 197.452 153.48 200.204 156.592 202.176C159.785 204.147 163.43 205.133 167.524 205.133Z" fill="white"/>
<path d="M241.968 150.543V160.401H236.931C230.953 160.401 226.654 162.414 224.033 166.439C221.495 170.465 220.225 175.435 220.225 181.35V213.39H210.153V150.543H218.874L220.225 160.031C222.027 157.156 224.361 154.856 227.227 153.13C230.093 151.405 234.065 150.543 239.142 150.543H241.968Z" fill="white"/>
<path d="M251.179 132.921H261.251V150.543H277.097V159.785H261.251V196.877C261.251 199.506 261.743 201.395 262.725 202.545C263.79 203.613 265.591 204.147 268.13 204.147H279.063V213.39H267.516C261.62 213.39 257.402 212.075 254.864 209.446C252.407 206.817 251.179 202.669 251.179 197V132.921Z" fill="white"/>
<path d="M316.916 149.803C324.532 149.803 330.674 152.103 335.341 156.704C340.009 161.305 342.343 168.534 342.343 178.392V213.39H332.271V179.009C332.271 172.518 330.797 167.589 327.848 164.221C324.9 160.771 320.683 159.045 315.196 159.045C309.382 159.045 304.755 161.099 301.315 165.207C297.958 169.314 296.279 174.901 296.279 181.966V213.39H286.206V127.129H296.279V160.894C298.326 157.608 301.029 154.938 304.386 152.884C307.826 150.83 312.002 149.803 316.916 149.803Z" fill="white"/>
<path d="M356.657 213.39V127.129H366.484L412.671 193.673V127.129H423.112V213.39H413.285L367.098 146.846V213.39H356.657Z" fill="white"/>
<path d="M467.181 214.129C461.121 214.129 455.716 212.773 450.966 210.062C446.298 207.351 442.654 203.572 440.034 198.725C437.413 193.878 436.103 188.292 436.103 181.966C436.103 175.64 437.413 170.054 440.034 165.207C442.654 160.36 446.298 156.581 450.966 153.87C455.716 151.159 461.121 149.803 467.181 149.803C473.241 149.803 478.605 151.159 483.273 153.87C488.022 156.581 491.707 160.36 494.328 165.207C496.949 170.054 498.259 175.64 498.259 181.966C498.259 188.292 496.949 193.878 494.328 198.725C491.707 203.572 488.022 207.351 483.273 210.062C478.605 212.773 473.241 214.129 467.181 214.129ZM467.181 205.133C471.275 205.133 474.879 204.147 477.991 202.176C481.184 200.204 483.641 197.452 485.361 193.919C487.081 190.387 487.94 186.402 487.94 181.966C487.94 177.53 487.081 173.545 485.361 170.013C483.641 166.48 481.184 163.728 477.991 161.756C474.879 159.785 471.275 158.799 467.181 158.799C463.086 158.799 459.442 159.785 456.248 161.756C453.136 163.728 450.721 166.48 449.001 170.013C447.281 173.545 446.421 177.53 446.421 181.966C446.421 186.402 447.281 190.387 449.001 193.919C450.721 197.452 453.136 200.204 456.248 202.176C459.442 204.147 463.086 205.133 467.181 205.133Z" fill="white"/>
<path d="M541.624 150.543V160.401H536.588C530.61 160.401 526.311 162.414 523.69 166.439C521.151 170.465 519.882 175.435 519.882 181.35V213.39H509.809V150.543H518.531L519.882 160.031C521.684 157.156 524.018 154.856 526.884 153.13C529.75 151.405 533.722 150.543 538.799 150.543H541.624Z" fill="white"/>
<path d="M550.835 132.921H560.908V150.543H576.754V159.785H560.908V196.877C560.908 199.506 561.399 201.395 562.382 202.545C563.447 203.613 565.248 204.147 567.787 204.147H578.719V213.39H567.173C561.276 213.39 557.059 212.075 554.52 209.446C552.064 206.817 550.835 202.669 550.835 197V132.921Z" fill="white"/>
<path d="M616.573 149.803C624.189 149.803 630.33 152.103 634.998 156.704C639.666 161.305 642 168.534 642 178.392V213.39H631.927V179.009C631.927 172.518 630.453 167.589 627.505 164.221C624.557 160.771 620.34 159.045 614.853 159.045C609.039 159.045 604.412 161.099 600.972 165.207C597.615 169.314 595.936 174.901 595.936 181.966V213.39H585.863V127.129H595.936V160.894C597.983 157.608 600.686 154.938 604.043 152.884C607.483 150.83 611.659 149.803 616.573 149.803Z" fill="white"/>
<path d="M758.296 213.453H742.482L697.862 168.226L698.099 213.453H668V93.2363H758.296V213.453Z" fill="white"/>
<path d="M758.297 93.2401H774.111L818.731 138.467L818.495 93.2401H848.594V213.457H758.297V93.2401Z" fill="white"/>
<path d="M819.386 258.048L731.761 170.419L699.872 51.042L787.341 138.374L819.386 258.048ZM766.053 148.971C763.531 144.604 757.946 143.107 753.578 145.629C749.211 148.15 747.715 153.735 750.237 158.102C752.758 162.47 758.342 163.966 762.71 161.445C767.077 158.923 768.574 153.338 766.053 148.971Z" fill="#DB1811"/>
<path d="M59.9005 67.7926H64.3331L74.3266 91.2047L84.1992 67.7926H88.5512V96H85.126V73.7564L75.7773 96H72.6745L63.3257 73.7564V96H59.9005V67.7926ZM112.756 92.9778V96H110.943C109.627 96 108.686 95.7314 108.122 95.1941C107.558 94.6568 107.263 93.8643 107.236 92.8166C105.651 95.1 103.354 96.2418 100.345 96.2418C98.0617 96.2418 96.2215 95.7045 94.8245 94.6299C93.4545 93.5554 92.7694 92.0913 92.7694 90.2376C92.7694 88.1691 93.4679 86.5841 94.8648 85.4827C96.2886 84.3812 98.3437 83.8305 101.03 83.8305H107.075V82.4201C107.075 81.0769 106.618 80.0292 105.705 79.277C104.818 78.5248 103.569 78.1487 101.957 78.1487C100.533 78.1487 99.3511 78.4711 98.4109 79.1159C97.4975 79.7337 96.9334 80.5665 96.7185 81.6142H93.4142C93.6559 79.5994 94.5425 78.0279 96.0737 76.8996C97.6318 75.7713 99.6467 75.2071 102.118 75.2071C104.751 75.2071 106.779 75.8519 108.203 77.1413C109.654 78.4039 110.379 80.2307 110.379 82.6216V91.4868C110.379 92.4808 110.836 92.9778 111.749 92.9778H112.756ZM107.075 86.611H100.708C97.6453 86.611 96.114 87.7527 96.114 90.0361C96.114 91.057 96.517 91.8763 97.3229 92.4942C98.1288 93.1121 99.2168 93.421 100.587 93.421C102.602 93.421 104.187 92.8972 105.342 91.8495C106.497 90.7749 107.075 89.3645 107.075 87.6184V86.611ZM134.8 67.7926V96H131.939L131.496 92.6957C129.776 95.0598 127.426 96.2418 124.444 96.2418C122.537 96.2418 120.831 95.8254 119.326 94.9926C117.849 94.1598 116.68 92.9509 115.82 91.3659C114.988 89.7809 114.571 87.9004 114.571 85.7244C114.571 83.6559 114.988 81.8291 115.82 80.2441C116.68 78.6592 117.862 77.4234 119.367 76.5369C120.871 75.6504 122.563 75.2071 124.444 75.2071C126.109 75.2071 127.533 75.516 128.715 76.1339C129.897 76.7249 130.824 77.5443 131.496 78.592V67.7926H134.8ZM124.766 93.3001C126.083 93.3001 127.251 92.9912 128.272 92.3733C129.32 91.7286 130.126 90.8421 130.69 89.7138C131.254 88.5586 131.536 87.2557 131.536 85.805C131.536 84.3275 131.254 83.0112 130.69 81.856C130.126 80.674 129.32 79.7606 128.272 79.1159C127.251 78.4711 126.083 78.1487 124.766 78.1487C122.725 78.1487 121.072 78.8606 119.81 80.2844C118.574 81.6814 117.956 83.4947 117.956 85.7244C117.956 87.9542 118.574 89.7809 119.81 91.2047C121.072 92.6017 122.725 93.3001 124.766 93.3001ZM138.576 85.7244C138.576 83.629 138.979 81.7888 139.785 80.2039C140.618 78.6189 141.773 77.3965 143.25 76.5369C144.728 75.6504 146.42 75.2071 148.328 75.2071C150.208 75.2071 151.874 75.5966 153.324 76.3757C154.775 77.1548 155.917 78.2831 156.75 79.7606C157.582 81.2381 158.026 82.9709 158.079 84.9588C158.079 85.2543 158.052 85.7244 157.999 86.3692H142.041V86.6513C142.095 88.6661 142.713 90.2779 143.895 91.4868C145.077 92.6957 146.622 93.3001 148.529 93.3001C150.007 93.3001 151.256 92.9375 152.277 92.2121C153.324 91.46 154.023 90.4257 154.372 89.1093H157.717C157.314 91.2047 156.306 92.924 154.694 94.2673C153.083 95.5836 151.108 96.2418 148.771 96.2418C146.729 96.2418 144.943 95.812 143.411 94.9523C141.88 94.0658 140.685 92.83 139.825 91.245C138.992 89.6332 138.576 87.793 138.576 85.7244ZM154.654 83.629C154.493 81.8829 153.835 80.5262 152.68 79.5591C151.551 78.592 150.114 78.1084 148.368 78.1084C146.81 78.1084 145.44 78.6189 144.258 79.6397C143.076 80.6605 142.404 81.9903 142.243 83.629H154.654ZM170.462 75.4489H173.927L179.045 92.1719L184.445 75.4489H187.507L192.625 92.1719L197.984 75.4489H201.329L194.479 96H190.852L185.895 80.7277L180.737 96L177.111 96.0403L170.462 75.4489ZM205.569 67.5105C206.187 67.5105 206.697 67.712 207.1 68.115C207.503 68.5179 207.705 69.0283 207.705 69.6462C207.705 70.2641 207.503 70.7745 207.1 71.1775C206.697 71.5804 206.187 71.7819 205.569 71.7819C204.951 71.7819 204.441 71.5804 204.038 71.1775C203.635 70.7745 203.433 70.2641 203.433 69.6462C203.433 69.0283 203.635 68.5179 204.038 68.115C204.441 67.712 204.951 67.5105 205.569 67.5105ZM203.917 75.4489H207.221V96H203.917V75.4489ZM213.118 78.4711H209.411V75.4489H213.118V69.6865H216.422V75.4489H221.621V78.4711H216.422V90.6003C216.422 91.46 216.584 92.0778 216.906 92.4539C217.255 92.8032 217.846 92.9778 218.679 92.9778H222.265V96H218.477C216.543 96 215.16 95.5702 214.327 94.7105C213.521 93.8509 213.118 92.4942 213.118 90.6406V78.4711ZM234.69 75.2071C237.189 75.2071 239.203 75.9593 240.735 77.4637C242.266 78.9681 243.031 81.3321 243.031 84.5559V96H239.727V84.7573C239.727 82.6351 239.244 81.0232 238.277 79.9218C237.309 78.7935 235.926 78.2293 234.126 78.2293C232.219 78.2293 230.701 78.9009 229.573 80.2441C228.471 81.5874 227.92 83.4141 227.92 85.7244V96H224.616V67.7926H227.92V78.8338C228.592 77.7592 229.478 76.8861 230.58 76.2145C231.708 75.5429 233.078 75.2071 234.69 75.2071ZM299.785 75.2071C301.692 75.2071 303.385 75.6235 304.862 76.4563C306.366 77.2891 307.535 78.498 308.368 80.083C309.227 81.668 309.657 83.5484 309.657 85.7244C309.657 87.793 309.227 89.6198 308.368 91.2047C307.535 92.7897 306.366 94.0255 304.862 94.912C303.358 95.7985 301.665 96.2418 299.785 96.2418C298.119 96.2418 296.695 95.9463 295.513 95.3553C294.331 94.7374 293.404 93.9046 292.733 92.8569L292.29 96H289.429V67.7926H292.733V78.7532C294.452 76.3891 296.803 75.2071 299.785 75.2071ZM299.462 93.3001C301.504 93.3001 303.143 92.6017 304.378 91.2047C305.641 89.7809 306.272 87.9542 306.272 85.7244C306.272 83.4947 305.641 81.6814 304.378 80.2844C303.143 78.8606 301.504 78.1487 299.462 78.1487C298.146 78.1487 296.964 78.4711 295.916 79.1159C294.895 79.7337 294.103 80.6202 293.539 81.7754C292.975 82.9037 292.693 84.1932 292.693 85.6439C292.693 87.1214 292.975 88.4512 293.539 89.6332C294.103 90.7883 294.895 91.6883 295.916 92.333C296.964 92.9778 298.146 93.3001 299.462 93.3001ZM314.097 75.4489L320.423 92.2121L326.548 75.4489H330.054L320.585 99.4655C320.101 100.701 319.671 101.628 319.295 102.246C318.919 102.864 318.449 103.32 317.885 103.616C317.321 103.912 316.568 104.059 315.628 104.059H311.679V101.037H314.621C315.265 101.037 315.749 100.97 316.071 100.836C316.394 100.701 316.649 100.473 316.837 100.151C317.052 99.855 317.307 99.3446 317.603 98.6193L318.65 96.1612L310.591 75.4489H314.097Z" fill="white"/>
<path d="M254.738 73.6074C256.26 72.0854 258.325 71.2299 260.477 71.2299C262.63 71.2299 264.694 72.085 266.216 73.6067L266.216 73.6074L266.217 73.6067C267.739 72.0851 269.803 71.2299 271.955 71.2299C274.108 71.23 276.173 72.0855 277.694 73.6074C279.216 75.1293 280.071 77.1936 280.071 79.3457C280.071 81.4978 279.216 83.5621 277.694 85.084L266.217 96.5614L266.216 96.5607L266.216 96.5614L254.738 85.084C253.217 83.5621 252.362 81.4979 252.362 79.3457C252.362 77.1935 253.217 75.1293 254.738 73.6074Z" fill="#DB1811"/>
</g>
<defs>
<clipPath id="clip0_534_140">
<rect width="897.025" height="272" rx="40.2963" fill="white"/>
</clipPath>
</defs>
</svg>
